<?xml version="1.0" standalone="no"?>
<!DOCTYPE svg PUBLIC "-//W3C//DTD SVG 20010904//EN"
 "http://www.w3.org/TR/2001/REC-SVG-20010904/DTD/svg10.dtd">
<svg version="1.0" xmlns="http://www.w3.org/2000/svg"
 width="4500.000000pt" height="4500.000000pt" viewBox="0 0 4500.000000 4500.000000"
 preserveAspectRatio="xMidYMid meet">

<g transform="translate(0.000000,4500.000000) scale(0.100000,-0.100000)"
fill="#000000" stroke="none">
<path d="M25801 40365 c-252 -55 -406 -161 -605 -418 -140 -181 -217 -330
-339 -657 -106 -285 -158 -497 -173 -713 -6 -83 -9 -97 -23 -93 -106 32 -952
195 -1436 276 -1220 205 -2328 322 -3705 392 -339 17 -1557 17 -1815 0 -1554
-103 -2418 -318 -3232 -804 -731 -437 -1436 -1047 -1868 -1618 -385 -509 -613
-1026 -702 -1590 -28 -178 -25 -599 5 -774 55 -317 139 -572 288 -869 349
-696 950 -1327 1984 -2082 157 -115 171 -127 135 -121 -105 17 -625 18 -1060
1 -462 -18 -830 -16 -990 5 -414 56 -739 202 -999 450 -94 89 -164 181 -376
495 -393 580 -720 1017 -1193 1595 -731 891 -1644 1862 -2264 2407 -863 758
-1553 1101 -2116 1052 -1063 -92 -1840 -1634 -2341 -4644 -255 -1532 -438
-3558 -517 -5720 -15 -411 -15 -1771 0 -2250 50 -1591 149 -2991 327 -4610
216 -1964 425 -3720 559 -4685 346 -2501 715 -3901 1301 -4932 324 -570 746
-1118 1254 -1629 382 -384 713 -665 1163 -988 1102 -789 2534 -1442 4162
-1896 2307 -644 4935 -955 8750 -1035 2220 -46 4737 -46 5980 0 3923 148 6793
746 9130 1905 1503 746 2738 1713 3731 2921 1036 1261 1640 2727 2328 5649
198 844 590 2663 875 4066 318 1566 521 3290 601 5099 41 942 41 2205 0 3150
-83 1877 -329 3871 -645 5225 -372 1591 -833 2363 -1458 2445 -241 32 -519
-106 -987 -489 -757 -619 -2277 -2151 -3802 -3831 -157 -173 -302 -331 -323
-350 l-38 -35 8 30 c19 80 55 281 67 375 8 66 13 211 12 390 0 236 -4 313 -22
450 -54 398 -161 809 -309 1185 -318 805 -958 1470 -2126 2209 -743 470 -1612
908 -2802 1411 -1487 629 -3128 1182 -4585 1545 -135 33 -251 63 -258 65 -9 4
-3 18 21 47 66 83 98 139 283 494 330 632 336 645 402 844 73 221 93 308 93
415 1 99 -19 153 -73 200 -63 54 -153 67 -277 40z m-20225 -3286 c441 -61 996
-375 1640 -928 575 -495 1484 -1450 2200 -2311 511 -615 872 -1093 1284 -1700
106 -157 220 -321 254 -365 229 -303 591 -533 998 -634 380 -95 688 -109 1438
-66 453 26 775 20 1168 -20 l143 -15 232 -153 c1005 -666 1916 -1104 3097
-1492 894 -293 2029 -551 3210 -730 91 -13 262 -43 380 -65 1444 -273 3171
-462 4525 -495 132 -4 391 -15 575 -25 963 -56 1251 -64 2080 -65 965 0 1425
23 2175 106 1001 111 1713 269 2365 526 189 74 502 224 647 309 534 313 934
712 1173 1168 49 93 59 106 158 191 137 117 250 236 662 690 1250 1379 2691
2846 3435 3495 389 340 660 535 862 621 70 30 87 33 173 33 106 0 183 -23 286
-85 333 -202 642 -772 888 -1644 385 -1363 686 -3576 781 -5740 121 -2769 -89
-5683 -589 -8150 -270 -1333 -656 -3129 -856 -3991 -586 -2513 -1096 -3911
-1835 -5029 -423 -641 -1071 -1361 -1745 -1940 -1550 -1332 -3556 -2267 -6055
-2824 -1580 -352 -3341 -554 -5500 -631 -1186 -42 -4008 -37 -6060 10 -3584
83 -6129 383 -8345 985 -3071 835 -5240 2263 -6477 4265 -615 995 -987 2304
-1337 4705 -145 994 -299 2263 -570 4695 -276 2476 -388 4382 -373 6345 6 736
11 896 47 1635 242 4848 935 8023 1966 8999 143 136 295 231 459 286 123 42
292 55 441 34z"/>
<path d="M5348 34890 c-157 -27 -299 -125 -405 -280 -144 -212 -282 -688 -398
-1377 -39 -235 -156 -1018 -209 -1403 -155 -1116 -241 -2077 -286 -3177 -12
-292 -9 -318 49 -347 62 -32 158 -10 186 44 10 19 17 103 25 291 49 1217 139
2165 330 3494 206 1436 338 2026 514 2310 146 234 339 253 669 66 650 -367
1656 -1607 2911 -3591 93 -146 182 -287 198 -313 34 -53 71 -77 118 -77 46 0
99 28 122 64 37 59 25 89 -144 356 -1059 1674 -1894 2784 -2548 3388 -358 331
-638 500 -909 547 -90 16 -149 17 -223 5z"/>
<path d="M39784 33130 c-146 -20 -332 -102 -513 -224 -732 -495 -1720 -1742
-3073 -3880 -186 -294 -208 -333 -208 -371 0 -70 59 -125 135 -125 55 0 88 23
130 92 143 233 531 836 756 1173 1046 1571 1815 2497 2398 2887 352 236 577
254 736 60 225 -273 361 -898 489 -2262 101 -1067 86 -1926 -49 -2890 -32
-227 -32 -260 1 -299 50 -59 148 -60 197 -2 27 33 39 96 81 438 102 817 120
1563 60 2398 -45 621 -152 1506 -229 1890 -134 664 -327 999 -631 1094 -74 23
-197 33 -280 21z"/>
<path d="M11445 20254 c-375 -91 -678 -569 -782 -1234 -26 -165 -26 -666 0
-825 68 -421 191 -730 385 -968 153 -189 374 -299 567 -283 156 12 280 73 418
206 286 273 466 775 484 1350 l6 185 -134 0 c-99 0 -154 5 -209 19 -271 69
-478 235 -596 481 -64 131 -86 225 -87 370 -2 238 75 441 230 606 65 68 65 69
40 78 -83 32 -224 38 -322 15z"/>
<path d="M31475 19455 c-571 -126 -945 -1132 -785 -2113 98 -601 378 -1052
730 -1173 50 -17 89 -23 170 -23 186 -1 310 55 471 214 108 107 176 205 254
365 129 265 205 593 221 958 l7 143 -139 1 c-162 1 -250 20 -378 82 -308 149
-491 444 -488 786 1 247 91 450 277 623 l76 71 -41 21 c-105 54 -255 72 -375
45z"/>
<path d="M19719 17140 c-705 -40 -1202 -206 -1496 -498 -403 -401 -423 -986
-55 -1657 80 -146 225 -361 348 -515 141 -177 457 -492 597 -597 186 -138 375
-231 550 -269 l77 -17 0 -56 c0 -31 -45 -863 -99 -1850 -62 -1135 -95 -1805
-90 -1824 l8 -30 -71 7 c-287 27 -597 151 -854 344 -138 104 -380 356 -433
451 -5 9 -13 13 -17 9 -11 -11 41 -165 91 -267 192 -394 563 -688 1009 -801
630 -159 1298 96 1660 635 91 134 182 352 200 475 7 44 7 45 -11 24 -10 -12
-46 -62 -80 -110 -269 -384 -689 -663 -1119 -743 -40 -8 -44 -7 -39 8 4 9 53
852 109 1873 56 1021 104 1859 107 1862 3 3 45 17 94 31 247 72 643 268 931
462 298 201 755 622 980 903 436 546 548 1006 332 1375 -53 90 -217 254 -323
324 -349 229 -895 379 -1600 441 -165 14 -629 20 -806 10z m946 -760 c585 -40
1032 -228 1153 -487 39 -85 38 -185 -3 -267 -185 -368 -1026 -574 -1814 -446
-437 72 -763 243 -862 454 -29 62 -31 74 -27 145 6 98 38 161 129 251 187 185
574 316 1030 349 165 12 226 12 394 1z"/>
<path d="M7980 15529 c-590 -13 -1150 -55 -1745 -129 -400 -51 -391 -48 -421
-126 -16 -42 -16 -50 -3 -87 20 -58 58 -82 127 -81 31 0 167 14 302 32 1188
154 2475 177 3690 66 443 -40 892 -100 1362 -183 185 -33 221 -31 264 16 47
51 40 140 -15 186 -23 19 -63 30 -209 56 -599 106 -1292 188 -1923 226 -222
13 -999 37 -1084 33 -16 -1 -172 -5 -345 -9z"/>
<path d="M31295 14451 c-60 -3 -120 -11 -131 -18 -48 -28 -67 -117 -38 -178
28 -60 65 -69 244 -61 293 12 1005 -17 1445 -60 981 -94 1937 -297 2899 -614
150 -50 284 -90 297 -90 34 0 85 34 104 69 34 66 7 144 -62 179 -53 27 -493
170 -760 247 -1000 290 -2071 467 -3103 514 -288 14 -759 20 -895 12z"/>
<path d="M9320 14059 c-547 -36 -1109 -135 -1615 -284 -319 -94 -623 -206
-659 -242 -56 -56 -55 -132 3 -187 48 -46 87 -44 236 12 567 215 1227 366
1870 427 229 22 799 31 1033 16 171 -11 186 -10 214 6 87 51 86 183 -1 228
-18 9 -83 18 -178 25 -171 11 -720 11 -903 -1z"/>
<path d="M31008 12995 c-61 -34 -79 -139 -33 -194 32 -38 63 -47 200 -61 801
-81 1690 -290 2454 -576 79 -30 158 -54 176 -54 73 0 135 80 120 156 -11 62
-45 85 -225 151 -745 274 -1505 459 -2285 557 -285 36 -373 40 -407 21z"/>
<path d="M10405 12679 c-694 -66 -1411 -311 -1976 -674 -116 -75 -139 -102
-139 -162 0 -58 21 -96 64 -117 61 -29 94 -22 202 47 591 374 1286 607 1952
653 117 8 156 24 184 75 22 41 23 68 4 114 -31 73 -81 84 -291 64z"/>
<path d="M30372 11636 c-36 -20 -62 -66 -62 -113 0 -92 43 -124 190 -142 441
-54 1021 -192 1450 -345 302 -107 504 -193 806 -342 142 -70 222 -104 245
-104 101 0 161 119 104 206 -10 15 -89 61 -216 125 -713 356 -1467 591 -2261
704 -197 28 -224 29 -256 11z"/>
</g>
</svg>
